<svg id="Layer_1" data-name="Layer 1" xmlns="http://www.w3.org/2000/svg" viewBox="0 0 320 320"><defs><style>.cls-1{fill-rule:evenodd;}</style></defs><g id="Black"><path d="M171.65,52.36H42.91V156.94c0,58,44.89,112.2,102.61,112.2H277.09V150.38C277.09,92.38,229.38,52.36,171.65,52.36ZM251.77,243H145.52c-43.29,0-76.5-42.6-76.5-86.09V78.47H171.65c43.3,0,80.12,28.41,80.12,71.9Z"/><path class="cls-1" d="M147.48,223.6h18.7V151.08H188V136.7H166.18V124.35c0-5.72,2-7.74,8.08-7.74H188V98.9H172.79c-14.49,0-25.31,7.93-25.31,25.45V136.7H126.05l4.08,14.38h17.35Z"/></g></svg>