<svg id="Laag_1" data-name="Laag 1" xmlns="http://www.w3.org/2000/svg" viewBox="0 0 1278 592"><defs><style>.cls-1{fill:#5a291c;}.cls-2{fill:#f6a109;}.cls-3{fill:#fff;fill-rule:evenodd;}</style></defs><path class="cls-1" d="M580.61,276.77l-19.38,51H549l-19.79-51h14.28l11.43,33.05,11.32-33.05Z"/><path class="cls-1" d="M628,305.23c0,14-6.63,23.46-22,23.46-14.79,0-22-9.18-22-23.46v-6.12c0-15.3,8.06-23.26,22-23.26,14.18,0,22,8,22,23.26Zm-12.95-.41v-5.3c0-8.16-2.65-12.65-9.08-12.65s-9.08,4.49-9.08,12.65v5.3c0,7.35,1.84,12.86,9.08,12.86S615.09,312.17,615.09,304.82Z"/><path class="cls-1" d="M678.94,305.23c0,14-6.63,23.46-22,23.46-14.79,0-22-9.18-22-23.46v-6.12c0-15.3,8.06-23.26,22-23.26,14.18,0,22,8,22,23.26Zm-13-.41v-5.3c0-8.16-2.66-12.65-9.08-12.65s-9.08,4.49-9.08,12.65v5.3c0,7.35,1.84,12.86,9.08,12.86S666,312.17,666,304.82Z"/><path class="cls-1" d="M715.25,291c-1.32-1.94-3.16-3.88-6.43-3.88-4.89,0-8.16,3.58-8.16,10.72v30h-13v-51h12.75v4.29c1.73-2.55,5.1-5.21,11.12-5.21a14.93,14.93,0,0,1,13.77,8Z"/><path class="cls-1" d="M796.75,327.78h-13V297.89c0-8.16-3.16-10.82-7.75-10.82S768,290.54,768,297.79v30H754.93v-51h12.75v4.29c1.94-2.66,5.61-5.21,11.32-5.21,6.12,0,11.12,2.35,14.28,6.84A18.59,18.59,0,0,1,808,275.85c11.12,0,17.65,6.74,17.65,20v31.93H812.56V297.89c0-7.65-2.65-10.82-7.85-10.82-4.7,0-8,3.47-8,10.72Z"/><path class="cls-1" d="M852.34,297.17h10.1v-2.95c0-5.72-1.74-7.55-9.08-7.55-5,0-7.45.71-9.59,4.08l-9.18-6.43c3.77-6.22,9.49-8.47,20-8.47,13.16,0,20.61,3.88,20.61,18.47v33.46H862.44v-4.49c-2,3.46-5.1,5.4-11,5.4-10.61,0-17.95-5.61-17.95-16C833.47,301.87,841.63,297.17,852.34,297.17Zm10.1,9.59h-8.57c-5.31,0-7.65,1.74-7.65,5.71s3,5.72,7.44,5.72c5.92,0,8.78-2.55,8.78-9.49Z"/><path class="cls-1" d="M928.43,276.77l-17.65,21.32,20.61,29.69h-15.3l-14-19.18-3.46,4.28v14.9H885.59V257.39h13.06v37.95l14.28-18.57Z"/><path class="cls-1" d="M976.27,320c-3.57,6.23-9.49,8.67-18.67,8.67-15.3,0-22.64-9.89-22.64-23.05V298.7c0-15.4,7.75-22.85,21-22.85,14.38,0,21,8.37,21,23.87v5.82H947.91c.1,7,2.35,12.14,9.59,12.14,5.4,0,7.14-1.64,9.08-4.39Zm-28.36-23.76h16c-.31-6.63-3-9.39-7.86-9.39C950.87,286.87,948.42,290.44,947.91,296.26Z"/><path class="cls-1" d="M986.36,257.39h13.06V308.5c0,5.5,1.63,8.05,7.14,8.05v11.23c-13.77,0-20.2-3.57-20.2-16.32Z"/><path class="cls-1" d="M1031.75,297.17h10.1v-2.95c0-5.72-1.73-7.55-9.08-7.55-5,0-7.44.71-9.58,4.08l-9.19-6.43c3.78-6.22,9.49-8.47,20-8.47,13.16,0,20.6,3.88,20.6,18.47v33.46h-12.75v-4.49c-2,3.46-5.1,5.4-11,5.4-10.61,0-18-5.61-18-16C1012.88,301.87,1021,297.17,1031.75,297.17Zm10.1,9.59h-8.57c-5.3,0-7.65,1.74-7.65,5.71s3,5.72,7.45,5.72c5.92,0,8.77-2.55,8.77-9.49Z"/><path class="cls-1" d="M1081.32,297.17h10.1v-2.95c0-5.72-1.73-7.55-9.08-7.55-5,0-7.44.71-9.58,4.08l-9.18-6.43c3.77-6.22,9.48-8.47,20-8.47,13.16,0,20.6,3.88,20.6,18.47v33.46h-12.75v-4.49c-2,3.46-5.1,5.4-11,5.4-10.61,0-18-5.61-18-16C1062.45,301.87,1070.61,297.17,1081.32,297.17Zm10.1,9.59h-8.57c-5.3,0-7.65,1.74-7.65,5.71s3,5.72,7.45,5.72c5.92,0,8.77-2.55,8.77-9.49Z"/><path class="cls-1" d="M1142.22,291c-1.33-1.94-3.16-3.88-6.43-3.88-4.89,0-8.16,3.58-8.16,10.72v30h-13.06v-51h12.76v4.29c1.73-2.55,5.1-5.21,11.11-5.21a14.93,14.93,0,0,1,13.77,8Z"/><path class="cls-1" d="M1184.34,291.15c-2.24-2.65-4.49-4.08-10-4.08-3.37,0-6.43,1-6.43,4s2.75,4.18,8.16,5c12.55,1.94,18.87,6.73,18.87,16.83,0,9.79-6.83,15.81-20,15.81-10.41,0-16.73-2.55-21.12-8.46l10-7.14c2,2.75,4.59,4.38,10.91,4.38,4.49,0,7.25-1.53,7.25-4.18,0-3.16-2.25-4.18-8.67-5.2-10.61-1.74-18.36-6.22-18.36-16.53,0-9.69,6.93-15.71,19.68-15.71,8.37,0,15.3,1.94,19.28,8.47Z"/><path class="cls-2" d="M509.11,371.08l-26-92.44h0c-10.6-36.46-45.31-57.86-77.36-57.86H84l25.64,92.59v.14c10.66,36.78,45.39,57.36,75.65,57.71Zm-377.3-63.91c-.07-.21-12.18-44.11-17.52-63.35H405.7c21.69,0,47.46,14.59,55.23,41.16.08.28,15.51,56,17.51,63.21H186.09C164,348.19,139.32,332.86,131.81,307.17Z"/><path class="cls-1" d="M131.81,307.17c-.07-.21-12.18-44.11-17.52-63.35H405.7c21.69,0,47.46,14.59,55.23,41.16.08.28,15.51,56,17.51,63.21H186.09C164,348.19,139.32,332.86,131.81,307.17Z"/><path class="cls-3" d="M178.54,327.91h10.21V285h11.88v-7.81H188.75v-6.71c0-3.11,1.11-4.21,4.41-4.21h7.47v-9.61h-8.27c-7.91,0-13.82,4.31-13.82,13.82v6.71H166.85l2.22,7.81h9.47Z"/><path class="cls-3" d="M213.51,310.89a17.06,17.06,0,0,0,17,17.62,16.19,16.19,0,0,0,13.12-6h.2v5.41h10.21V277.14H243.86v30.24c0,6.91-4.31,10.92-10,10.92s-10.11-4-10.11-10.92V277.14H213.51Z"/><path class="cls-3" d="M272.15,327.91h10.22V297.67c0-6.91,4.3-10.92,10.12-10.92s10,4,10,10.92v30.24h10.21V294.16c0-11.52-9-17.63-16.92-17.63a16.29,16.29,0,0,0-13.23,6h-.19v-5.41H272.15Z"/><path class="cls-3" d="M358,327.91h10.22v-71.3H358v25.94c-3.8-3.61-7.9-6-13.11-6a16.57,16.57,0,0,0-13.62,6.62c-2.8,3.6-3.61,6.91-3.61,19.33s.81,15.82,3.61,19.43a16.58,16.58,0,0,0,13.62,6.6A17.87,17.87,0,0,0,358,322.6Zm-10-41.16c9.53,0,10,8.42,10,15.73s-.49,15.82-10,15.82-10.1-7.91-10.1-15.82S338.38,286.75,348,286.75Z"/><path class="cls-3" d="M412.7,327.91h10.21V293.26c0-12.52-8.6-16.73-21.12-16.73-7.61,0-13.23,2-17.13,7.42l8,6.11c1.8-2.9,4.31-3.91,9.62-3.91,7.3,0,10.41,1.7,10.41,6.51V298H398.58c-10.91,0-16.52,6.91-16.52,15,0,8.81,6.6,15.52,17.92,15.52,6.91,0,10.42-1.6,12.52-5.1h.2Zm0-17.82c0,7.91-2.9,8.81-11.42,8.81-6.91,0-9.62-3-9.62-6.41,0-3.7,2.81-6.11,8.82-6.11H412.7Z"/></svg>