<?xml version="1.0" encoding="utf-8"?>
<!-- Generator: Adobe Illustrator 26.5.0, SVG Export Plug-In . SVG Version: 6.00 Build 0)  -->
<svg version="1.1" id="Laag_1" xmlns="http://www.w3.org/2000/svg" xmlns:xlink="http://www.w3.org/1999/xlink" x="0px" y="0px"
	 viewBox="0 0 1159.5 192.8" style="enable-background:new 0 0 1159.5 192.8;" xml:space="preserve">
<style type="text/css">
	.st0{fill:#53241B;}
	.st1{fill:#60C5F8;}
	.st2{fill-rule:evenodd;clip-rule:evenodd;fill:#FFFFFF;}
</style>
<g>
	<path class="st0" d="M520.8,77.2l-19.4,51h-12.2l-19.8-51h14.3l11.4,33l11.3-33H520.8z"/>
	<path class="st0" d="M568.2,105.6c0,14-6.6,23.5-22,23.5c-14.8,0-22-9.2-22-23.5v-6.1c0-15.3,8.1-23.3,22-23.3c14.2,0,22,8,22,23.3
		V105.6z M555.2,105.2v-5.3c0-8.2-2.7-12.6-9.1-12.6s-9.1,4.5-9.1,12.6v5.3c0,7.4,1.8,12.9,9.1,12.9S555.3,112.6,555.2,105.2
		L555.2,105.2z"/>
	<path class="st0" d="M619.1,105.6c0,14-6.6,23.5-22,23.5c-14.8,0-22-9.2-22-23.5v-6.1c0-15.3,8.1-23.3,22-23.3c14.2,0,22,8,22,23.3
		V105.6z M606.1,105.2v-5.3c0-8.2-2.7-12.6-9.1-12.6s-9.1,4.5-9.1,12.6v5.3c0,7.4,1.8,12.9,9.1,12.9S606.2,112.6,606.1,105.2
		L606.1,105.2z"/>
	<path class="st0" d="M655.4,91.4c-1.3-1.9-3.2-3.9-6.4-3.9c-4.9,0-8.2,3.6-8.2,10.7v30h-13v-51h12.8v4.3c1.7-2.5,5.1-5.2,11.1-5.2
		c5.7-0.2,11.1,2.9,13.8,8L655.4,91.4z"/>
	<path class="st0" d="M737,128.2h-13V98.3c0-8.2-3.2-10.8-7.8-10.8s-8,3.5-8,10.7v30h-13.1v-51h12.8v4.3c1.9-2.7,5.6-5.2,11.3-5.2
		c6.1,0,11.1,2.4,14.3,6.8c3.6-4.4,9-7,14.7-6.9c11.1,0,17.7,6.7,17.7,20v31.9h-13.1V98.2c0-7.6-2.7-10.8-7.8-10.8
		c-4.7,0-8,3.5-8,10.7L737,128.2z"/>
	<path class="st0" d="M792.5,97.6h10.1v-3c0-5.7-1.7-7.5-9.1-7.5c-5,0-7.5,0.7-9.6,4.1l-9.2-6.4c3.8-6.2,9.5-8.5,20-8.5
		c13.2,0,20.6,3.9,20.6,18.5v33.5h-12.8v-4.5c-2,3.5-5.1,5.4-11,5.4c-10.6,0-18-5.6-18-16C773.7,102.3,781.8,97.6,792.5,97.6z
		 M802.6,107.2H794c-5.3,0-7.7,1.7-7.7,5.7s3,5.7,7.4,5.7c5.9,0,8.8-2.5,8.8-9.5L802.6,107.2L802.6,107.2z"/>
	<path class="st0" d="M868.6,77.2l-17.7,21.3l20.6,29.7h-15.3l-14-19.2l-3.5,4.3v14.9h-13V57.8h13.1v38l14.3-18.6L868.6,77.2z"/>
	<path class="st0" d="M916.5,120.4c-3.6,6.2-9.5,8.7-18.7,8.7c-15.3,0-22.6-9.9-22.6-23v-6.9c0-15.4,7.8-22.9,21-22.9
		c14.4,0,21,8.4,21,23.9v5.8h-29.1c0.1,7,2.3,12.1,9.6,12.1c5.4,0,7.1-1.6,9.1-4.4L916.5,120.4z M888.1,96.6h16
		c-0.3-6.6-3-9.4-7.9-9.4C891.1,87.3,888.6,90.8,888.1,96.6L888.1,96.6z"/>
	<path class="st0" d="M926.6,57.8h13.1v51.1c0,5.5,1.6,8,7.1,8v11.2c-13.8,0-20.2-3.6-20.2-16.3L926.6,57.8L926.6,57.8z"/>
	<path class="st0" d="M972,97.6h10.1v-3c0-5.7-1.7-7.5-9.1-7.5c-5,0-7.4,0.7-9.6,4.1l-9.2-6.4c3.8-6.2,9.5-8.5,20-8.5
		c13.2,0,20.6,3.9,20.6,18.5v33.5H982v-4.5c-2,3.5-5.1,5.4-11,5.4c-10.6,0-18-5.6-18-16C953.1,102.3,961.2,97.6,972,97.6z
		 M982,107.2h-8.6c-5.3,0-7.7,1.7-7.7,5.7s3,5.7,7.4,5.7c5.9,0,8.8-2.5,8.8-9.5L982,107.2L982,107.2z"/>
	<path class="st0" d="M1021.5,97.6h10.1v-3c0-5.7-1.7-7.5-9.1-7.5c-5,0-7.4,0.7-9.6,4.1l-9.2-6.4c3.8-6.2,9.5-8.5,20-8.5
		c13.2,0,20.6,3.9,20.6,18.5v33.5h-12.8v-4.5c-2,3.5-5.1,5.4-11,5.4c-10.6,0-18-5.6-18-16C1002.6,102.3,1010.8,97.6,1021.5,97.6z
		 M1031.6,107.2h-8.6c-5.3,0-7.7,1.7-7.7,5.7s3,5.7,7.4,5.7c5.9,0,8.8-2.5,8.8-9.5L1031.6,107.2L1031.6,107.2z"/>
	<path class="st0" d="M1082.4,91.4c-1.3-1.9-3.2-3.9-6.4-3.9c-4.9,0-8.2,3.6-8.2,10.7v30h-13.1v-51h12.8v4.3
		c1.7-2.5,5.1-5.2,11.1-5.2c5.7-0.2,11.1,2.9,13.8,8L1082.4,91.4z"/>
	<path class="st0" d="M1124.5,91.5c-2.2-2.6-4.5-4.1-10-4.1c-3.4,0-6.4,1-6.4,4s2.8,4.2,8.2,5c12.6,1.9,18.9,6.7,18.9,16.8
		c0,9.8-6.8,15.8-20,15.8c-10.4,0-16.7-2.5-21.1-8.5l10-7.1c2,2.8,4.6,4.4,10.9,4.4c4.5,0,7.2-1.5,7.2-4.2c0-3.2-2.2-4.2-8.7-5.2
		c-10.6-1.7-18.4-6.2-18.4-16.5c0-9.7,6.9-15.7,19.7-15.7c8.4,0,15.3,1.9,19.3,8.5L1124.5,91.5z"/>
	<path class="st1" d="M449.3,171.5l-26-92.4l0,0c-10.6-36.5-45.3-57.9-77.4-57.9H24.2l25.6,92.6v0.1c10.7,36.8,45.4,57.4,75.7,57.7
		L449.3,171.5z M72,107.6c-0.1-0.2-12.2-44.1-17.5-63.4h291.4c21.7,0,47.5,14.6,55.2,41.2c0.1,0.3,15.5,56,17.5,63.2H126.3
		C104.2,148.6,79.5,133.3,72,107.6L72,107.6z"/>
	<path class="st0" d="M72,107.6c-0.1-0.2-12.2-44.1-17.5-63.4h291.4c21.7,0,47.5,14.6,55.2,41.2c0.1,0.3,15.5,56,17.5,63.2H126.3
		C104.2,148.6,79.5,133.3,72,107.6z"/>
	<path class="st2" d="M118.7,128.3h10.2V85.4h11.9v-7.8h-11.9v-6.7c0-3.1,1.1-4.2,4.4-4.2h7.5v-9.6h-8.3c-7.9,0-13.8,4.3-13.8,13.8
		v6.7H107l2.2,7.8h9.5L118.7,128.3z"/>
	<path class="st2" d="M153.7,111.3c-0.3,9.4,7.1,17.3,16.5,17.6c0.2,0,0.3,0,0.5,0c5.1,0.2,9.9-2.1,13.1-6h0.2v5.4h10.2V77.5H184
		v30.2c0,6.9-4.3,10.9-10,10.9s-10.1-4-10.1-10.9V77.5h-10.2V111.3z"/>
	<path class="st2" d="M212.3,128.3h10.2V98.1c0-6.9,4.3-10.9,10.1-10.9s10,4,10,10.9v30.2h10.2V94.5c0-11.5-9-17.6-16.9-17.6
		c-5.1-0.2-10,2-13.2,6h-0.2v-5.4h-10.2V128.3z"/>
	<path class="st2" d="M298.2,128.3h10.2V57h-10.2v25.9c-3.8-3.6-7.9-6-13.1-6c-5.3-0.1-10.4,2.3-13.6,6.6c-2.8,3.6-3.6,6.9-3.6,19.3
		s0.8,15.8,3.6,19.4c3.2,4.3,8.3,6.7,13.6,6.6c5-0.1,9.8-2.2,13.1-5.9V128.3z M288.2,87.2c9.5,0,10,8.4,10,15.7s-0.5,15.8-10,15.8
		s-10.1-7.9-10.1-15.8S278.6,87.2,288.2,87.2z"/>
	<path class="st2" d="M352.9,128.3h10.2V93.7c0-12.5-8.6-16.7-21.1-16.7c-7.6,0-13.2,2-17.1,7.4l8,6.1c1.8-2.9,4.3-3.9,9.6-3.9
		c7.3,0,10.4,1.7,10.4,6.5v5.3h-14.1c-10.9,0-16.5,6.9-16.5,15c0,8.8,6.6,15.5,17.9,15.5c6.9,0,10.4-1.6,12.5-5.1h0.2V128.3z
		 M352.9,110.5c0,7.9-2.9,8.8-11.4,8.8c-6.9,0-9.6-3-9.6-6.4c0-3.7,2.8-6.1,8.8-6.1h12.2V110.5z"/>
</g>
</svg>
