<svg id="Laag_1" data-name="Laag 1" xmlns="http://www.w3.org/2000/svg" viewBox="0 0 657 150.45"><defs><style>.cls-1{fill:#53241b;}.cls-2{fill:#f7a100;}.cls-3{fill:#fff;fill-rule:evenodd;}</style></defs><path class="cls-1" d="M482.17,107.06v-4.8c-3.53,3.92-7.26,5.39-12.65,5.39-5.09,0-9.6-1.66-12.44-4.6-4.9-5-5.3-12.94-5.3-21.57s.4-16.46,5.3-21.46c2.84-2.94,7.25-4.61,12.34-4.61s9.12,1.38,12.45,5.1V37.28h12.74v69.78Zm-9-40.18c-7.65,0-8.63,6.37-8.63,14.6s1,14.7,8.63,14.7,8.72-6.46,8.72-14.7S480.79,66.88,473.15,66.88Z"/><path class="cls-1" d="M518.52,85.5c0,6.67,3.92,11.37,11.17,11.37,5.59,0,8.33-1.66,11.57-4.8L549,99.62c-5.19,5.29-10.19,8-19.4,8-12.06,0-23.62-5.49-23.62-26.17,0-16.66,9-26.07,22.24-26.07,14.22,0,22.25,10.2,22.25,24.7V85.5Zm18.23-14.21a9.51,9.51,0,0,0-17,0,12.59,12.59,0,0,0-1.18,5.49h19.41A12.59,12.59,0,0,0,536.75,71.29Z"/><path class="cls-1" d="M578.59,107.65c-8,0-15.19-.88-21.75-7.35L565.17,92c4.11,4.21,9.7,4.8,13.62,4.8,4.41,0,9-1.47,9-5.29,0-2.55-1.28-4.31-5.39-4.7L574.18,86c-9-.88-14.7-4.9-14.7-14.31,0-10.68,9.31-16.27,19.7-16.27,8,0,14.6,1.47,19.51,6l-7.84,7.94c-2.94-2.65-7.36-3.43-11.86-3.43-5.1,0-7.26,2.35-7.26,4.9s1.47,4,5.3,4.41l8,.79c10.1,1,15.19,6.27,15.19,15C600.25,102.26,590.65,107.65,578.59,107.65Z"/><path class="cls-1" d="M641.22,107.06,628.67,85.8l-5.39,6.07v15.19H610.54V37.28h12.74v39.6l17-20.88h15.38L637.4,76.58,657,107.06Z"/><path class="cls-2" d="M425.11,150.3l-26-92.43h0C388.49,21.4,353.78,0,321.73,0H0L25.64,92.59v.15C36.3,129.52,71,150.1,101.29,150.45ZM47.81,86.39c-.07-.2-12.18-44.1-17.52-63.35H321.7c21.69,0,47.46,14.6,55.23,41.16.08.29,15.51,56,17.51,63.22H102.09C80,127.42,55.32,112.08,47.81,86.39Z"/><path class="cls-1" d="M47.81,86.39c-.07-.2-12.18-44.1-17.52-63.35H321.7c21.69,0,47.46,14.6,55.23,41.16.08.29,15.51,56,17.51,63.22H102.09C80,127.42,55.32,112.08,47.81,86.39Z"/><path class="cls-3" d="M94.54,107.14h10.21v-43h11.88V56.36H104.75V49.65c0-3.1,1.11-4.2,4.41-4.2h7.47V35.83h-8.27c-7.91,0-13.82,4.31-13.82,13.82v6.71H82.85l2.22,7.82h9.47Z"/><path class="cls-3" d="M129.51,90.11c0,11.52,9,17.62,17,17.62a16.21,16.21,0,0,0,13.12-6h.2v5.41h10.21V56.36H159.86V86.61c0,6.91-4.31,10.91-10,10.91s-10.11-4-10.11-10.91V56.36H129.51Z"/><path class="cls-3" d="M188.15,107.14h10.22V76.9c0-6.92,4.3-10.92,10.12-10.92s10,4,10,10.92v30.24h10.21V73.39c0-11.52-9-17.63-16.92-17.63a16.28,16.28,0,0,0-13.23,6h-.19V56.36H188.15Z"/><path class="cls-3" d="M274,107.14h10.22V35.83H274V61.77c-3.8-3.61-7.9-6-13.11-6a16.59,16.59,0,0,0-13.62,6.61c-2.8,3.61-3.61,6.91-3.61,19.33s.81,15.82,3.61,19.43a16.55,16.55,0,0,0,13.62,6.6,17.86,17.86,0,0,0,13.11-5.9ZM264,66c9.53,0,10,8.41,10,15.72s-.49,15.82-10,15.82-10.1-7.91-10.1-15.82S254.38,66,264,66Z"/><path class="cls-3" d="M328.7,107.14h10.21V72.49c0-12.52-8.6-16.73-21.12-16.73-7.61,0-13.23,2-17.13,7.41l8,6.11c1.8-2.9,4.31-3.9,9.62-3.9,7.3,0,10.41,1.7,10.41,6.51V77.2H314.58c-10.91,0-16.52,6.9-16.52,15,0,8.81,6.6,15.51,17.92,15.51,6.91,0,10.42-1.59,12.52-5.1h.2Zm0-17.83c0,7.91-2.9,8.81-11.42,8.81-6.91,0-9.62-3-9.62-6.41,0-3.7,2.81-6.11,8.82-6.11H328.7Z"/></svg>