<?xml version="1.0" encoding="utf-8"?>
<!-- Generator: Adobe Illustrator 26.3.1, SVG Export Plug-In . SVG Version: 6.00 Build 0)  -->
<svg version="1.1" id="Laag_1" xmlns="http://www.w3.org/2000/svg" xmlns:xlink="http://www.w3.org/1999/xlink" x="0px" y="0px"
	 viewBox="0 0 1103.9 592" style="enable-background:new 0 0 1103.9 592;" xml:space="preserve">
<style type="text/css">
	.st0{fill:#FFFFFF;}
	.st1{fill:#60C5F8;}
	.st2{fill:#53241B;}
	.st3{fill-rule:evenodd;clip-rule:evenodd;fill:#FFFFFF;}
</style>
<path class="st0" d="M534.9,268.6v-10.3h12.9v10.3L534.9,268.6z M535.1,327.8v-50.6h12.6v50.6H535.1z"/>
<path class="st0" d="M591.2,327.8v-30.6c0-6.9-4.4-9.2-8.3-9.2s-8.5,2.3-8.5,9.2v30.6h-12.6v-50.6h12.3v4.7
	c3.3-3.4,7.9-5.3,12.6-5.2c5,0,9.1,1.6,12,4.5c4.1,4.1,5.2,8.8,5.2,14.4v32.3H591.2z"/>
<path class="st0" d="M677.2,323.9c-2.8,2.8-7.4,4.6-12.3,4.6c-5.3,0-9.1-1.5-12.6-5.4v4.8H640v-69.1h12.6v23c3.3-3.7,7.1-5,12.2-5
	c5,0,9.5,1.8,12.3,4.6c5,5,5.1,13.7,5.1,21.3S682.2,318.8,677.2,323.9z M661.2,288c-7.6,0-8.5,6.2-8.5,14.5s1,14.6,8.5,14.6
	s8.5-6.3,8.5-14.6S668.7,288,661.2,288L661.2,288z"/>
<path class="st0" d="M723.5,327.8v-4.7c-3.3,3.4-7.9,5.3-12.6,5.2c-5,0-9.1-1.7-12-4.5c-4.1-4.1-5.2-8.8-5.2-14.4v-32.3h12.6v30.6
	c0,6.9,4.4,9.2,8.3,9.2s8.5-2.3,8.5-9.2v-30.6h12.6v50.6H723.5z"/>
<path class="st0" d="M766.6,328.4c-8,0-15.2-0.9-21.6-7.3l8.2-8.3c4.2,4.2,9.6,4.8,13.5,4.8c4.4,0,8.9-1.5,8.9-5.2
	c0-2.5-1.4-4.3-5.3-4.7l-8-0.8c-9.1-0.9-14.8-4.9-14.8-14.2c0-10.5,9.2-16.1,19.5-16.1c7.9,0,14.5,1.4,19.3,5.9l-7.8,7.9
	c-2.9-2.6-7.4-3.4-11.8-3.4c-5,0-7.2,2.3-7.2,4.9c0,1.8,0.8,4,5.2,4.4l8,0.8c10,1,15.1,6.3,15.1,14.9
	C788.1,323.1,778.6,328.4,766.6,328.4z"/>
<path class="st0" d="M798.5,268.6v-10.3h12.9v10.3L798.5,268.6z M798.7,327.8v-50.6h12.6v50.6H798.7z"/>
<path class="st0" d="M854.8,327.8v-30.6c0-6.9-4.4-9.2-8.3-9.2s-8.5,2.3-8.5,9.2v30.6h-12.6v-50.6h12.3v4.7
	c3.3-3.4,7.9-5.3,12.6-5.2c5,0,9.1,1.6,12,4.5c4.1,4.1,5.2,8.8,5.2,14.4v32.3H854.8z"/>
<path class="st0" d="M891,306.5c0,6.5,4,11.3,11.1,11.3c5.5,0,8.2-1.5,11.5-4.8l7.7,7.5c-5.2,5.1-10.1,8-19.2,8
	c-12,0-23.4-5.4-23.4-25.9c0-16.5,8.9-25.8,22-25.8c14.1,0,22,10.3,22,24.2v5.6L891,306.5z M909,292.4c-2.3-4.7-8-6.6-12.6-4.3
	c-1.8,0.9-3.3,2.4-4.3,4.3c-0.8,1.7-1.1,3.6-1.2,5.4h19.3C910.2,296,909.8,294.1,909,292.4z"/>
<path class="st0" d="M950.9,328.4c-8,0-15.2-0.9-21.6-7.3l8.2-8.3c4.2,4.2,9.6,4.8,13.5,4.8c4.4,0,8.9-1.5,8.9-5.2
	c0-2.5-1.4-4.3-5.3-4.7l-8-0.8c-9.1-0.9-14.8-4.9-14.8-14.2c0-10.5,9.2-16.1,19.5-16.1c7.9,0,14.5,1.4,19.3,5.9l-7.8,7.9
	c-2.9-2.6-7.4-3.4-11.8-3.4c-5,0-7.2,2.3-7.2,4.9c0,1.8,0.8,4,5.2,4.4l8,0.8c10,1,15.1,6.3,15.1,14.9
	C972.4,323.1,962.8,328.4,950.9,328.4z"/>
<path class="st0" d="M999,328.4c-8,0-15.2-0.9-21.6-7.3l8.2-8.3c4.2,4.2,9.6,4.8,13.5,4.8c4.4,0,8.9-1.5,8.9-5.2
	c0-2.5-1.4-4.3-5.3-4.7l-8-0.8c-9.1-0.9-14.8-4.9-14.8-14.2c0-10.5,9.2-16.1,19.5-16.1c7.9,0,14.5,1.4,19.3,5.9l-7.8,7.9
	c-2.9-2.6-7.4-3.4-11.8-3.4c-5,0-7.2,2.3-7.2,4.9c0,1.8,0.8,4,5.2,4.4l8,0.8c10,1,15,6.3,15,14.9
	C1020.4,323.1,1010.9,328.4,999,328.4z"/>
<path class="st1" d="M508.6,371.1l-26-92.4l0,0c-10.6-36.5-45.3-57.9-77.4-57.9H83.4l25.7,92.6v0.1c10.7,36.8,45.4,57.4,75.6,57.7
	L508.6,371.1z M131.2,307.2c-0.1-0.2-12.2-44.1-17.5-63.4h291.4c21.7,0,47.5,14.6,55.2,41.2c0.1,0.3,15.5,56,17.5,63.2H185.5
	C163.4,348.2,138.8,332.9,131.2,307.2z"/>
<path class="st2" d="M131.2,307.2c-0.1-0.2-12.2-44.1-17.5-63.4h291.4c21.7,0,47.5,14.6,55.2,41.2c0.1,0.3,15.5,56,17.5,63.2H185.5
	C163.4,348.2,138.8,332.9,131.2,307.2z"/>
<path class="st3" d="M178,327.9h10.2V285h11.9v-7.8h-11.9v-6.7c0-3.1,1.1-4.2,4.4-4.2h7.5v-9.6h-8.3c-7.9,0-13.8,4.3-13.8,13.8v6.7
	h-11.7l2.2,7.8h9.5V327.9z"/>
<path class="st3" d="M213,310.9c0,11.5,9,17.6,17,17.6c5.1,0.2,9.9-2.1,13.1-6h0.2v5.4h10.2v-50.8h-10.2v30.2
	c0,6.9-4.3,10.9-10,10.9s-10.1-4-10.1-10.9v-30.2H213V310.9z"/>
<path class="st3" d="M271.6,327.9h10.2v-30.2c0-6.9,4.3-10.9,10.1-10.9s10,4,10,10.9v30.2h10.2v-33.8c0-11.5-9-17.6-16.9-17.6
	c-5.1-0.2-10,2-13.2,6h-0.2v-5.4h-10.2V327.9z"/>
<path class="st3" d="M357.5,327.9h10.2v-71.3h-10.2v25.9c-3.8-3.6-7.9-6-13.1-6c-5.3-0.1-10.4,2.3-13.6,6.6
	c-2.8,3.6-3.6,6.9-3.6,19.3s0.8,15.8,3.6,19.4c3.2,4.3,8.3,6.7,13.6,6.6c5,0,9.8-2.2,13.1-5.9V327.9z M347.5,286.8
	c9.5,0,10,8.4,10,15.7s-0.5,15.8-10,15.8s-10.1-7.9-10.1-15.8S337.8,286.8,347.5,286.8L347.5,286.8z"/>
<path class="st3" d="M412.1,327.9h10.2v-34.6c0-12.5-8.6-16.7-21.1-16.7c-7.6,0-13.2,2-17.1,7.4l8,6.1c1.8-2.9,4.3-3.9,9.6-3.9
	c7.3,0,10.4,1.7,10.4,6.5v5.3H398c-10.9,0-16.5,6.9-16.5,15c0,8.8,6.6,15.5,17.9,15.5c6.9,0,10.4-1.6,12.5-5.1h0.2L412.1,327.9z
	 M412.1,310.1c0,7.9-2.9,8.8-11.4,8.8c-6.9,0-9.6-3-9.6-6.4c0-3.7,2.8-6.1,8.8-6.1h12.2V310.1z"/>
</svg>
