<svg id="Laag_1" data-name="Laag 1" xmlns="http://www.w3.org/2000/svg" viewBox="0 0 1103.87 592"><defs><style>.cls-1{fill-rule:evenodd;}</style></defs><path d="M534.89,268.6V258.3h12.92v10.3Zm.2,59.24v-50.6h12.63v50.6Z"/><path d="M591.23,327.84V297.25c0-6.9-4.37-9.23-8.35-9.23s-8.45,2.33-8.45,9.23v30.59H561.8v-50.6h12.33v4.66a17.36,17.36,0,0,1,12.63-5.24c5,0,9.13,1.65,12,4.47,4.08,4.07,5.15,8.83,5.15,14.37v32.34Z"/><path d="M677.19,323.86c-2.82,2.82-7.39,4.57-12.34,4.57-5.34,0-9.13-1.46-12.63-5.35v4.76H640V258.69h12.62v23c3.3-3.69,7.09-5,12.24-5,4.95,0,9.52,1.75,12.34,4.56,5,5,5.14,13.7,5.14,21.27S682.24,318.81,677.19,323.86Zm-16-35.84c-7.58,0-8.55,6.22-8.55,14.47s1,14.57,8.55,14.57,8.55-6.31,8.55-14.57S668.74,288,661.16,288Z"/><path d="M723.52,327.84v-4.66a17.33,17.33,0,0,1-12.63,5.25c-5,0-9.13-1.66-11.95-4.47-4.08-4.08-5.15-8.84-5.15-14.38V277.24h12.63v30.59c0,6.9,4.37,9.23,8.35,9.23s8.46-2.33,8.46-9.23V277.24h12.62v50.6Z"/><path d="M766.64,328.43c-8,0-15.15-.88-21.56-7.29l8.25-8.26c4.18,4.18,9.62,4.77,13.5,4.77,4.38,0,8.94-1.46,8.94-5.25,0-2.52-1.36-4.27-5.34-4.66l-8-.78c-9.13-.87-14.76-4.86-14.76-14.18,0-10.49,9.23-16.12,19.52-16.12,7.87,0,14.48,1.36,19.33,5.92l-7.77,7.87c-2.91-2.62-7.38-3.4-11.75-3.4-5,0-7.19,2.33-7.19,4.86,0,1.84.78,4,5.25,4.37l8,.77c10,1,15.06,6.32,15.06,14.86C788.11,323.08,778.59,328.43,766.64,328.43Z"/><path d="M798.5,268.6V258.3h12.92v10.3Zm.19,59.24v-50.6h12.63v50.6Z"/><path d="M854.83,327.84V297.25c0-6.9-4.37-9.23-8.35-9.23s-8.45,2.33-8.45,9.23v30.59H825.4v-50.6h12.34v4.66a17.32,17.32,0,0,1,12.62-5.24c5,0,9.14,1.65,11.95,4.47,4.08,4.07,5.15,8.83,5.15,14.37v32.34Z"/><path d="M891,306.47c0,6.51,4,11.27,11.08,11.27,5.53,0,8.25-1.55,11.46-4.76l7.67,7.48c-5.15,5.15-10.1,8-19.23,8-12,0-23.41-5.44-23.41-25.94,0-16.51,8.94-25.83,22.05-25.83,14.08,0,22,10.29,22,24.18v5.63ZM909,292.39a9.43,9.43,0,0,0-16.9,0,14,14,0,0,0-1.17,5.44H910.2A14,14,0,0,0,909,292.39Z"/><path d="M950.89,328.43c-8,0-15.15-.88-21.56-7.29l8.25-8.26c4.18,4.18,9.62,4.77,13.51,4.77,4.37,0,8.93-1.46,8.93-5.25,0-2.52-1.36-4.27-5.34-4.66l-8-.78c-9.14-.87-14.77-4.86-14.77-14.18,0-10.49,9.23-16.12,19.52-16.12,7.87,0,14.48,1.36,19.33,5.92L963,290.45c-2.91-2.62-7.38-3.4-11.75-3.4-5,0-7.19,2.33-7.19,4.86,0,1.84.78,4,5.25,4.37l8,.77c10,1,15.06,6.32,15.06,14.86C972.36,323.08,962.84,328.43,950.89,328.43Z"/><path d="M999,328.43c-8,0-15.15-.88-21.56-7.29l8.25-8.26c4.18,4.18,9.62,4.77,13.5,4.77,4.37,0,8.94-1.46,8.94-5.25,0-2.52-1.36-4.27-5.34-4.66l-8-.78c-9.13-.87-14.76-4.86-14.76-14.18,0-10.49,9.23-16.12,19.52-16.12,7.87,0,14.47,1.36,19.33,5.92l-7.77,7.87c-2.91-2.62-7.38-3.4-11.75-3.4-5.05,0-7.19,2.33-7.19,4.86,0,1.84.78,4,5.25,4.37l8,.77c10,1,15,6.32,15,14.86C1020.42,323.08,1010.91,328.43,999,328.43Z"/><path d="M508.56,371.08l-26-92.44h0c-10.6-36.46-45.31-57.86-77.36-57.86H83.44l25.65,92.59v.14c10.65,36.78,45.39,57.36,75.64,57.71ZM131.25,307.17c-.06-.21-12.17-44.11-17.51-63.35h291.4c21.69,0,47.47,14.59,55.23,41.16.09.28,15.52,56,17.52,63.21H185.53C163.43,348.19,138.76,332.86,131.25,307.17Z"/><path class="cls-1" d="M178,327.91H188.2V285h11.88v-7.81H188.2v-6.71c0-3.11,1.1-4.21,4.4-4.21h7.48v-9.61H191.8c-7.91,0-13.81,4.31-13.81,13.82v6.71h-11.7l2.23,7.81H178Z"/><path class="cls-1" d="M213,310.89c0,11.51,9,17.62,17,17.62a16.16,16.16,0,0,0,13.12-6h.21v5.41h10.2V277.14h-10.2v30.24c0,6.91-4.32,10.92-10,10.92s-10.12-4-10.12-10.92V277.14H213Z"/><path class="cls-1" d="M271.59,327.91h10.22V297.67c0-6.91,4.3-10.92,10.12-10.92s10,4,10,10.92v30.24h10.21V294.16c0-11.52-9-17.63-16.92-17.63a16.26,16.26,0,0,0-13.22,6h-.2v-5.41H271.59Z"/><path class="cls-1" d="M357.45,327.91h10.22v-71.3H357.45v25.94c-3.8-3.61-7.9-6-13.11-6a16.59,16.59,0,0,0-13.63,6.62c-2.79,3.6-3.6,6.91-3.6,19.33s.81,15.82,3.6,19.43a16.6,16.6,0,0,0,13.63,6.6,17.89,17.89,0,0,0,13.11-5.91Zm-10-41.16c9.52,0,10,8.42,10,15.73s-.5,15.82-10,15.82-10.1-7.91-10.1-15.82S337.82,286.75,347.43,286.75Z"/><path class="cls-1" d="M412.15,327.91h10.2V293.26c0-12.52-8.59-16.73-21.12-16.73-7.61,0-13.23,2-17.13,7.42l8,6.11c1.81-2.9,4.32-3.91,9.62-3.91,7.31,0,10.42,1.7,10.42,6.51V298H398c-10.9,0-16.52,6.91-16.52,15,0,8.81,6.61,15.52,17.93,15.52,6.9,0,10.42-1.6,12.52-5.1h.2Zm0-17.82c0,7.91-2.91,8.81-11.42,8.81-6.92,0-9.62-3-9.62-6.41,0-3.7,2.81-6.11,8.82-6.11h12.22Z"/></svg>